<svg width="48" height="48" viewBox="0 0 48 48" fill="none" xmlns="http://www.w3.org/2000/svg">
<path d="M46.4306 7.47937C46.4092 7.1124 46.2538 6.76608 45.9938 6.50616C45.7339 6.24623 45.3876 6.0908 45.0206 6.06937C35.3156 5.50687 27.5231 8.45812 24.1744 13.9856C21.9619 17.64 21.9656 22.0781 24.1444 26.3119C22.9042 27.7882 21.9979 29.5151 21.4875 31.3744L18.4369 28.3125C19.9031 25.2506 19.8469 22.0594 18.2494 19.4081C15.7744 15.3225 10.0612 13.1325 2.96812 13.5487C2.60115 13.5702 2.25483 13.7256 1.99491 13.9855C1.73498 14.2455 1.57955 14.5918 1.55812 14.9587C1.13999 22.0519 3.33187 27.765 7.4175 30.24C8.76574 31.0637 10.315 31.4997 11.895 31.5C13.4286 31.4811 14.9383 31.1178 16.3125 30.4369L21 35.1244V40.5C21 40.8978 21.158 41.2794 21.4393 41.5607C21.7206 41.842 22.1022 42 22.5 42C22.8978 42 23.2794 41.842 23.5607 41.5607C23.842 41.2794 24 40.8978 24 40.5V34.9706C23.9933 32.5843 24.8054 30.2679 26.3006 28.4081C28.2299 29.4164 30.3696 29.9559 32.5462 29.9831C34.6507 29.9899 36.7161 29.415 38.5144 28.3219C44.0419 24.9769 47.0006 17.1844 46.4306 7.47937ZM8.96437 27.675C6.08812 25.9331 4.46062 21.81 4.49999 16.5C9.81 16.455 13.9331 18.0881 15.675 20.9644C16.5844 22.4644 16.7325 24.2137 16.1362 26.0156L11.5594 21.4387C11.2758 21.1693 10.8982 21.0213 10.507 21.0263C10.1159 21.0313 9.74216 21.1889 9.46555 21.4655C9.18895 21.7422 9.03134 22.1159 9.02634 22.507C9.02133 22.8981 9.16932 23.2758 9.43875 23.5594L14.0156 28.1362C12.2137 28.7325 10.4662 28.5844 8.96437 27.675ZM36.96 25.7587C34.4475 27.2794 31.4944 27.3956 28.4944 26.1337L38.5612 16.065C38.8307 15.7814 38.9787 15.4038 38.9737 15.0126C38.9686 14.6215 38.811 14.2478 38.5344 13.9712C38.2578 13.6946 37.8841 13.537 37.493 13.532C37.1018 13.527 36.7242 13.6749 36.4406 13.9444L26.3719 24C25.1044 21 25.2187 18.045 26.7469 15.5344C29.3606 11.2219 35.5594 8.81812 43.4962 9.00374C43.6762 16.9387 41.2762 23.145 36.96 25.7587Z" fill="#354F38"/>
</svg>
